Coordinates
version=1
nRows=24
nColumns=24
inDegrees=yes

Units are S.I. units (second, meters, Newtons, ...)
Angles are in degrees.

endheader
time	pelvis_tilt	pelvis_list	pelvis_rotation	pelvis_tx	pelvis_ty	pelvis_tz	hip_flexion_r	hip_adduction_r	hip_rotation_r	knee_angle_r	ankle_angle_r	subtalar_angle_r	mtp_angle_r	hip_flexion_l	hip_adduction_l	hip_rotation_l	knee_angle_l	ankle_angle_l	subtalar_angle_l	mtp_angle_l	lumbar_extension	lumbar_bending	lumbar_rotation
     10.93000000	     64.33139965	      4.63841586	      0.91625101	      0.56085449	      1.05899836	     -0.31021897	      1.86509781	    -13.46966679	      2.87034653	    -60.70598856	    -17.39505810	     -1.14932500	      0.00000000	      4.15680749	     -6.23475447	      3.44214857	    -66.17285211	     -6.56683690	     25.42402272	      0.00000000	      0.00000000	      0.00000000	      0.00000000
     10.94000000	     64.27453491	      4.62968821	      0.95029662	      0.56090731	      1.05892401	     -0.31024191	      1.92708026	    -13.46139633	      2.84472447	    -60.72341727	    -17.37424294	     -1.13815344	      0.00000000	      4.24303996	     -6.24478590	      3.47466714	    -66.26862688	     -6.57805884	     25.42721822	      0.00000000	      0.00000000	      0.00000000	      0.00000000
     10.95000000	     64.23396150	      4.61738734	      0.99043443	      0.56093782	      1.05886587	     -0.31026419	      1.96760638	    -13.44635728	      2.80774887	    -60.74191495	    -17.35405974	     -1.12754504	      0.00000000	      4.31367779	     -6.26096686	      3.51534472	    -66.36053479	     -6.59361070	     25.42448197	      0.00000000	      0.00000000	      0.00000000	      0.00000000
     10.96000000	     64.23330774	      4.60498662	      1.02413787	      0.56093853	      1.05883508	     -0.31026506	      1.96266243	    -13.42886597	      2.77206322	    -60.75502884	    -17.34116809	     -1.12185681	      0.00000000	      4.33810914	     -6.28020851	      3.55013112	    -66.43731203	     -6.61385556	     25.41484409	      0.00000000	      0.00000000	      0.00000000	      0.00000000
     10.97000000	     64.29533825	      4.59703584	      1.03392930	      0.56088917	      1.05885056	     -0.31024407	      1.89115810	    -13.41703992	      2.75733846	    -60.75224202	    -17.34033998	     -1.12511586	      0.00000000	      4.28300786	     -6.29578573	      3.55693627	    -66.47694892	     -6.64041712	     25.39949963	      0.00000000	      0.00000000	      0.00000000	      0.00000000
     10.98000000	     64.43207398	      4.59974434	      0.99956036	      0.56076126	      1.05893870	     -0.31024138	      1.74052259	    -13.42046357	      2.78525405	    -60.72051216	    -17.35381919	     -1.14020763	      0.00000000	      4.11840203	     -6.29875920	      3.51126150	    -66.45113402	     -6.67517012	     25.38154719	      0.00000000	      0.00000000	      0.00000000	      0.00000000
     10.99000000	     64.63691909	      4.62166135	      0.90259924	      0.56057371	      1.05911405	     -0.31026533	      1.51057838	    -13.44551976	      2.87142057	    -60.64898986	    -17.38128902	     -1.16802973	      0.00000000	      3.82733463	     -6.28114731	      3.39546544	    -66.33485408	     -6.71863809	     25.36495333	      0.00000000	      0.00000000	      0.00000000	      0.00000000
     11.00000000	     64.88397591	      4.67224285	      0.73429051	      0.56041277	      1.05943547	     -0.31019223	      1.21586252	    -13.49110223	      3.01714336	    -60.53550773	    -17.42023881	     -1.20690131	      0.00000000	      3.41751732	     -6.24000994	      3.20880516	    -66.11931407	     -6.76855609	     25.35308161	      0.00000000	      0.00000000	      0.00000000	      0.00000000
     11.01000000	     65.13634634	      4.75675942	      0.50560631	      0.56033642	      1.06008710	     -0.30982222	      0.88700932	    -13.54802443	      3.20513596	    -60.39140026	    -17.46646911	     -1.25261954	      0.00000000	      2.92976329	     -6.18092952	      2.97384239	    -65.82358910	     -6.81926132	     25.34739719	      0.00000000	      0.00000000	      0.00000000	      0.00000000
     11.02000000	     65.35990017	      4.86807784	      0.25455290	      0.56029256	      1.06120030	     -0.30913186	      0.56941424	    -13.60298365	      3.40191849	    -60.24120724	    -17.51470357	     -1.29934309	      0.00000000	      2.43738936	     -6.11775285	      2.73399293	    -65.49700326	     -6.86232827	     25.34699313	      0.00000000	      0.00000000	      0.00000000	      0.00000000
     11.03000000	     65.53257729	      4.98090762	      0.04172394	      0.56020239	      1.06243888	     -0.30845685	      0.31528078	    -13.64461071	      3.56649834	    -60.11625219	    -17.55952636	     -1.34104411	      0.00000000	      2.03208700	     -6.06656735	      2.54031978	    -65.20643658	     -6.88855753	     25.34926760	      0.00000000	      0.00000000	      0.00000000	      0.00000000
     11.04000000	     65.64073371	      5.05833330	     -0.07236099	      0.56008468	      1.06306506	     -0.30823243	      0.16874998	    -13.66765699	      3.66212099	    -60.04436387	    -17.59667758	     -1.37292644	      0.00000000	      1.79671007	     -6.03745524	      2.43330410	    -65.01227180	     -6.89091345	     25.35144065	      0.00000000	      0.00000000	      0.00000000	      0.00000000
     11.05000000	     65.66914237	      5.07336294	     -0.05874159	      0.56002038	      1.06271705	     -0.30851318	      0.15182138	    -13.67226848	      3.66668263	    -60.03999616	    -17.62410714	     -1.39221826	      0.00000000	      1.77579836	     -6.03166459	      2.43048031	    -64.94519739	     -6.86732561	     25.35200050	      0.00000000	      0.00000000	      0.00000000	      0.00000000
     11.06000000	     65.60215042	      5.02892735	      0.06472234	      0.56002591	      1.06188087	     -0.30896298	      0.26048295	    -13.65981023	      3.57861934	    -60.09904421	    -17.64186932	     -1.39819846	      0.00000000	      1.96121227	     -6.04585188	      2.52555792	    -64.99567534	     -6.82192590	     25.35134500	      0.00000000	      0.00000000	      0.00000000	      0.00000000
     11.07000000	     65.44053285	      4.95172872	      0.25033659	      0.56006615	      1.06126539	     -0.30930435	      0.47103001	    -13.63179857	      3.41760541	    -60.20110999	    -17.65064547	     -1.39181477	      0.00000000	      2.30172564	     -6.07477096	      2.69391830	    -65.11991024	     -6.76389102	     25.35164152	      0.00000000	      0.00000000	      0.00000000	      0.00000000
     11.08000000	     65.21387164	      4.86550955	      0.45267576	      0.56016635	      1.06089936	     -0.30955082	      0.74772194	    -13.59353632	      3.21972082	    -60.31874946	    -17.64992365	     -1.37510393	      0.00000000	      2.72578472	     -6.10918720	      2.89877011	    -65.25873869	     -6.70443422	     25.35602654	      0.00000000	      0.00000000	      0.00000000	      0.00000000
     11.09000000	     64.96985803	      4.78091706	      0.64253557	      0.56035787	      1.06038825	     -0.30980489	      1.04728436	    -13.55395560	      3.02649413	    -60.42887781	    -17.63720502	     -1.35024907	      0.00000000	      3.15968641	     -6.13827904	      3.09971507	    -65.36093388	     -6.65335489	     25.36700047	      0.00000000	      0.00000000	      0.00000000	      0.00000000
     11.10000000	     64.75225588	      4.70683554	      0.80050800	      0.56056763	      1.05973376	     -0.31005989	      1.32416696	    -13.51976060	      2.87189834	    -60.52010260	    -17.60869965	     -1.31862987	      0.00000000	      3.53859318	     -6.15701148	      3.26407940	    -65.39889242	     -6.61628531	     25.38461170	      0.00000000	      0.00000000	      0.00000000	      0.00000000
     11.11000000	     64.58887984	      4.65337787	      0.91286390	      0.56069612	      1.05924505	     -0.31024198	      1.53909880	    -13.49272732	      2.77451002	    -60.59308821	    -17.56106508	     -1.28071004	      0.00000000	      3.81698815	     -6.16763206	      3.37449929	    -65.36976231	     -6.59335251	     25.40570168	      0.00000000	      0.00000000	      0.00000000	      0.00000000
     11.12000000	     64.49150808	      4.62444497	      0.97467886	      0.56072785	      1.05904230	     -0.31030952	      1.66860160	    -13.47186098	      2.73674651	    -60.65501012	    -17.49350124	     -1.23683210	      0.00000000	      3.97688579	     -6.17474441	      3.42894361	    -65.28636698	     -6.57980170	     25.42463008	      0.00000000	      0.00000000	      0.00000000	      0.00000000
     11.13000000	     64.45895548	      4.61541505	      0.99156381	      0.56072238	      1.05901070	     -0.31028145	      1.71144887	    -13.45569999	      2.74838246	    -60.71165901	    -17.40946405	     -1.18820689	      0.00000000	      4.02788379	     -6.18098911	      3.43610025	    -65.16635294	     -6.56854930	     25.43494500	      0.00000000	      0.00000000	      0.00000000	      0.00000000
     11.14000000	     64.47904350	      4.61747261	      0.97695534	      0.56075934	      1.05900257	     -0.31020809	      1.68824504	    -13.44311556	      2.79190655	    -60.76195849	    -17.31715706	     -1.13745086	      0.00000000	      3.99897657	     -6.18581606	      3.40995781	    -65.02438424	     -6.55371289	     25.43138505	      0.00000000	      0.00000000	      0.00000000	      0.00000000
     11.15000000	     64.53011041	      4.62301535	      0.94670063	      0.56085518	      1.05896742	     -0.31013090	      1.63232815	    -13.43332180	      2.84838354	    -60.79877591	    -17.22818191	     -1.08844083	      0.00000000	      3.92732223	     -6.18660560	      3.36534485	    -64.86858668	     -6.53360527	     25.41167011	      0.00000000	      0.00000000	      0.00000000	      0.00000000
     11.16000000	     64.58521801	      4.62810067	      0.91406198	      0.56090509	      1.05895387	     -0.31006866	      1.57597849	    -13.42609378	      2.90256193	    -60.81508282	    -17.15452976	     -1.04563539	      0.00000000	      3.84832812	     -6.18071325	      3.31485792	    -64.70129993	     -6.51186227	     25.37754835	      0.00000000	      0.00000000	      0.00000000	      0.00000000
